<?xml version="1.0" encoding="UTF-8"?>
<svg version="1.1" xmlns="http://www.w3.org/2000/svg" width="177" height="148">
<path d="M0 0 C2.875 1.625 2.875 1.625 5 4 C5.8125 7.75 5.8125 7.75 6 11 C5.05125 11.226875 4.1025 11.45375 3.125 11.6875 C-0.12423092 12.65955549 -0.12423092 12.65955549 -1.1484375 15.21875 C-2.0348568 18.11384422 -2.4190107 20.80601383 -2.75 23.8125 C-3.83436349 30.64651179 -6.31386103 34.9086903 -11.59765625 39.33984375 C-16.28325049 42.45249619 -21.45185277 43.11689775 -27 43 C-29.34680297 42.38242027 -31.68152126 41.7166207 -34 41 C-37.18362618 40.38064 -39.84405963 40.17318686 -43 41 C-45.42534388 42.86469075 -47.36089867 44.84975666 -49.37109375 47.15234375 C-51 49 -51 49 -53 50 C-54.99960012 50.039992 -57.00047242 50.04346799 -59 50 C-54.27103722 44.30702715 -49.19674733 39.07816019 -43.9375 33.875 C-43.14794922 33.08996094 -42.35839844 32.30492187 -41.54492188 31.49609375 C-38.47040719 28.43961897 -35.39249098 25.3868027 -32.3046875 22.34375 C-30.04178282 20.042491 -27.86499829 17.68372583 -25.69897461 15.29199219 C-9.83488753 -2.20437134 -9.83488753 -2.20437134 0 0 Z M-16 12 C-16.99 13.32 -17.98 14.64 -19 16 C-18.01 17.65 -17.02 19.3 -16 21 C-17.98 21.99 -17.98 21.99 -20 23 C-20.16687448 25.41645782 -20.16687448 25.41645782 -20 28 C-19.34 28.66 -18.68 29.32 -18 30 C-21.10986207 32.07324138 -21.89108387 32.27392186 -25.4375 32.25 C-26.19933594 32.25515625 -26.96117187 32.2603125 -27.74609375 32.265625 C-30.21443018 31.9747292 -31.857686 31.22975656 -34 30 C-34.66 31.32 -35.32 32.64 -36 34 C-31.73395537 37.50034431 -28.72826157 38.65217395 -23.1796875 38.390625 C-18.80842498 37.60724462 -16.04272816 35.18655274 -13.1875 31.9375 C-10.67869619 27.84418853 -10.48870487 23.67217967 -11 19 C-12.56656785 14.67774504 -12.56656785 14.67774504 -16 12 Z " fill="#272727" transform="translate(111,49)"/>
</svg>
