<svg version="1.1" id="Layer_1" xmlns="http://www.w3.org/2000/svg" xmlns:xlink="http://www.w3.org/1999/xlink" x="0px" y="0px"
	 width="100%" viewBox="0 0 600 600" enable-background="new 0 0 600 600" xml:space="preserve">
<path fill="#FFFFFF" opacity="1.000000" stroke="none" 
	d="
M1.000000,214.000000 
	C1.000000,142.666687 1.000000,71.833374 1.000000,1.000047 
	C200.999924,1.000032 400.999847,1.000032 600.999817,1.000016 
	C600.999878,200.999863 600.999878,400.999725 600.999939,600.999634 
	C401.000214,600.999756 201.000397,600.999756 1.000300,600.999878 
	C1.000000,472.166656 1.000000,343.333344 1.000000,214.000000 
M571.001465,483.500000 
	C571.001465,332.743958 571.001465,181.987930 571.001465,31.286335 
	C390.694489,31.286335 210.963379,31.286335 31.286304,31.286335 
	C31.286304,211.305496 31.286304,391.036591 31.286304,570.713623 
	C211.305420,570.713623 391.036499,570.713623 571.001465,570.713623 
	C571.001465,541.784302 571.001465,513.142151 571.001465,483.500000 
z"/>
<path fill="#121217" opacity="1.000000" stroke="none" 
	d="
M571.001465,484.000000 
	C571.001465,513.142151 571.001465,541.784302 571.001465,570.713623 
	C391.036499,570.713623 211.305420,570.713623 31.286304,570.713623 
	C31.286304,391.036591 31.286304,211.305496 31.286304,31.286335 
	C210.963379,31.286335 390.694489,31.286335 571.001465,31.286335 
	C571.001465,181.987930 571.001465,332.743958 571.001465,484.000000 
M116.970734,409.442413 
	C111.237114,423.567688 105.503494,437.692993 99.769875,451.818268 
	C108.843811,446.266876 117.351822,439.198547 125.968918,432.288513 
	C134.889252,425.135254 143.774246,417.937958 152.995255,410.501434 
	C166.338074,432.123932 179.393814,453.281219 192.686142,474.821899 
	C206.821579,461.528809 220.477875,448.686340 234.344055,435.646454 
	C256.628723,471.794556 278.596741,507.428955 300.932373,543.659729 
	C323.359009,507.281158 345.334686,471.634155 367.522858,435.642395 
	C381.533936,448.819519 395.195251,461.667694 409.179962,474.820038 
	C422.580017,453.106995 435.642639,431.940704 448.869202,410.508789 
	C466.785370,424.948792 484.204437,438.988129 501.623505,453.027496 
	C501.858765,450.654785 501.374054,448.786499 500.542877,447.087677 
	C479.217743,403.504822 468.014069,357.316437 466.056610,308.984589 
	C465.011902,283.190430 465.838776,257.324005 465.017517,231.515762 
	C464.606506,218.599319 463.172119,205.594803 460.799164,192.891907 
	C457.834045,177.018677 451.369720,162.248886 443.392273,148.201111 
	C435.317413,157.801590 427.703766,167.242325 419.610992,176.252762 
	C416.980927,179.181091 416.326172,181.205399 418.250458,184.760635 
	C423.410004,194.293121 426.291687,204.537796 425.464996,215.476852 
	C423.770081,237.905914 408.364502,255.642975 384.871277,261.842072 
	C378.203613,263.601440 371.208008,264.117889 364.347290,265.206818 
	C364.849762,271.649658 365.572144,278.261749 365.785889,284.890228 
	C365.877960,287.746613 366.763336,289.334381 369.240051,290.739197 
	C384.157867,299.200684 398.984589,307.822906 413.832550,316.407318 
	C415.291901,317.251068 416.688873,318.202728 418.518372,319.359467 
	C406.046448,326.354889 394.469452,333.308807 382.475647,339.448486 
	C370.015320,345.826996 360.036835,354.848114 353.725952,367.048798 
	C345.183105,383.564514 336.490265,400.226166 330.315338,417.692627 
	C320.172211,446.383514 312.001587,475.771729 302.993011,504.863953 
	C302.459717,506.586304 301.870605,508.291351 301.307434,510.004456 
	C294.535004,490.103119 288.923737,470.416016 282.895782,450.857391 
	C274.554321,423.792206 265.511353,396.987335 251.495834,372.163330 
	C243.282196,357.615509 232.654938,345.782532 217.322510,338.240387 
	C205.889771,332.616547 195.002167,325.884552 183.315582,319.334290 
	C185.386047,318.049072 186.881683,317.063080 188.430115,316.168457 
	C203.137115,307.671539 217.867508,299.214874 232.541840,290.662018 
	C233.859436,289.894043 235.700058,288.621979 235.822159,287.432526 
	C236.595245,279.901398 236.952438,272.327545 237.437469,264.911011 
	C231.980988,264.262848 226.643265,263.960175 221.441452,262.954529 
	C196.570374,258.146271 179.048843,240.256760 176.509460,217.068344 
	C175.213226,205.231827 178.492081,194.271149 183.974197,183.934631 
	C185.465469,181.122864 185.052551,179.447540 182.961349,177.054230 
	C175.623260,168.656021 168.639954,159.947800 161.524078,151.355499 
	C160.609451,150.251099 159.707184,149.136444 158.616074,147.802689 
	C144.515076,173.352127 136.704025,200.041641 136.690948,228.879303 
	C136.680679,251.542435 136.652756,274.208099 136.314713,296.867920 
	C135.744141,335.114929 129.593491,372.444885 116.970734,409.442413 
M266.598389,206.990540 
	C270.789490,210.025909 274.336853,209.623184 279.032806,206.850067 
	C294.294159,197.837799 309.864380,198.503174 324.813690,207.951080 
	C327.798828,209.837692 329.876587,209.828415 332.859711,208.274155 
	C365.847900,191.086700 394.646149,168.430542 420.091339,141.448044 
	C434.439514,126.233047 447.077942,109.753876 455.440857,90.362358 
	C456.130402,88.763382 456.640320,87.086945 457.233734,85.446503 
	C455.326508,86.210205 454.236542,87.407547 453.133972,88.593117 
	C445.322113,96.992805 436.569855,104.028564 425.427307,107.550652 
	C421.597290,108.761299 418.493500,108.598740 415.116791,105.326843 
	C351.299713,43.490665 251.695374,43.244198 187.298340,104.791786 
	C183.519943,108.402977 180.183655,108.842735 175.733902,107.341957 
	C165.340073,103.836411 157.072525,97.279099 149.557114,89.557030 
	C148.450424,88.419914 147.048813,87.569824 145.783661,86.586937 
	C145.265076,87.023575 144.746490,87.460205 144.227905,87.896843 
	C150.267441,97.938431 155.557526,108.532265 162.478317,117.924492 
	C190.097183,155.406067 225.302292,184.242325 266.598389,206.990540 
M339.210693,286.507965 
	C339.108459,283.845032 339.116241,281.172577 338.886078,278.520752 
	C337.372070,261.076599 332.499207,245.185577 318.166809,233.627258 
	C306.866974,224.514542 294.917664,224.512955 283.603271,233.706573 
	C275.624054,240.190170 270.157806,248.365341 266.934204,258.098297 
	C262.834198,270.477509 262.196075,283.247192 262.785614,296.115845 
	C263.035187,301.563629 261.096710,305.274750 256.189178,307.847290 
	C249.897736,311.145264 243.836319,314.882111 237.325500,318.631592 
	C238.140518,319.348877 238.553238,319.842987 239.075363,320.152740 
	C258.552795,331.708496 272.269073,348.468353 281.022766,368.977661 
	C287.799133,384.854248 293.029877,401.390594 298.942719,417.635498 
	C299.508148,419.188934 300.038116,420.755280 300.953064,423.367859 
	C301.710297,421.222107 302.026306,420.313507 302.351166,419.408081 
	C308.190521,403.134064 313.356537,386.577484 320.036713,370.656189 
	C328.998138,349.297791 342.951202,331.706360 363.334473,319.830994 
	C363.699890,319.618073 363.865845,319.062866 364.240387,318.490997 
	C360.562286,316.347107 356.999146,314.234619 353.402863,312.180206 
	C337.184692,302.915558 339.183411,305.663177 339.210693,286.507965 
M398.641693,216.791092 
	C399.651672,210.411194 398.551056,204.467453 395.724304,199.459610 
	C378.198883,210.498413 361.021576,221.317932 343.746246,232.199188 
	C353.976044,237.640625 365.036652,239.590118 376.645477,236.596558 
	C386.955170,233.937973 395.324219,228.702332 398.641693,216.791092 
M253.751358,234.260941 
	C255.340118,233.487778 256.928894,232.714615 258.032349,232.177643 
	C240.673019,221.218445 223.446365,210.343018 206.245285,199.483734 
	C198.889832,212.540482 203.168289,226.752777 217.262222,233.686554 
	C228.976227,239.449463 241.000320,239.099869 253.751358,234.260941 
z"/>
<path fill="#FDFDFE" opacity="1.000000" stroke="none" 
	d="
M117.080414,409.064514 
	C129.593491,372.444885 135.744141,335.114929 136.314713,296.867920 
	C136.652756,274.208099 136.680679,251.542435 136.690948,228.879303 
	C136.704025,200.041641 144.515076,173.352127 158.616074,147.802689 
	C159.707184,149.136444 160.609451,150.251099 161.524078,151.355499 
	C168.639954,159.947800 175.623260,168.656021 182.961349,177.054230 
	C185.052551,179.447540 185.465469,181.122864 183.974197,183.934631 
	C178.492081,194.271149 175.213226,205.231827 176.509460,217.068344 
	C179.048843,240.256760 196.570374,258.146271 221.441452,262.954529 
	C226.643265,263.960175 231.980988,264.262848 237.437469,264.911011 
	C236.952438,272.327545 236.595245,279.901398 235.822159,287.432526 
	C235.700058,288.621979 233.859436,289.894043 232.541840,290.662018 
	C217.867508,299.214874 203.137115,307.671539 188.430115,316.168457 
	C186.881683,317.063080 185.386047,318.049072 183.315582,319.334290 
	C195.002167,325.884552 205.889771,332.616547 217.322510,338.240387 
	C232.654938,345.782532 243.282196,357.615509 251.495834,372.163330 
	C265.511353,396.987335 274.554321,423.792206 282.895782,450.857391 
	C288.923737,470.416016 294.535004,490.103119 301.307434,510.004456 
	C301.870605,508.291351 302.459717,506.586304 302.993011,504.863953 
	C312.001587,475.771729 320.172211,446.383514 330.315338,417.692627 
	C336.490265,400.226166 345.183105,383.564514 353.725952,367.048798 
	C360.036835,354.848114 370.015320,345.826996 382.475647,339.448486 
	C394.469452,333.308807 406.046448,326.354889 418.518372,319.359467 
	C416.688873,318.202728 415.291901,317.251068 413.832550,316.407318 
	C398.984589,307.822906 384.157867,299.200684 369.240051,290.739197 
	C366.763336,289.334381 365.877960,287.746613 365.785889,284.890228 
	C365.572144,278.261749 364.849762,271.649658 364.347290,265.206818 
	C371.208008,264.117889 378.203613,263.601440 384.871277,261.842072 
	C408.364502,255.642975 423.770081,237.905914 425.464996,215.476852 
	C426.291687,204.537796 423.410004,194.293121 418.250458,184.760635 
	C416.326172,181.205399 416.980927,179.181091 419.610992,176.252762 
	C427.703766,167.242325 435.317413,157.801590 443.392273,148.201111 
	C451.369720,162.248886 457.834045,177.018677 460.799164,192.891907 
	C463.172119,205.594803 464.606506,218.599319 465.017517,231.515762 
	C465.838776,257.324005 465.011902,283.190430 466.056610,308.984589 
	C468.014069,357.316437 479.217743,403.504822 500.542877,447.087677 
	C501.374054,448.786499 501.858765,450.654785 501.623505,453.027496 
	C484.204437,438.988129 466.785370,424.948792 448.869202,410.508789 
	C435.642639,431.940704 422.580017,453.106995 409.179962,474.820038 
	C395.195251,461.667694 381.533936,448.819519 367.522858,435.642395 
	C345.334686,471.634155 323.359009,507.281158 300.932373,543.659729 
	C278.596741,507.428955 256.628723,471.794556 234.344055,435.646454 
	C220.477875,448.686340 206.821579,461.528809 192.686142,474.821899 
	C179.393814,453.281219 166.338074,432.123932 152.995255,410.501434 
	C143.774246,417.937958 134.889252,425.135254 125.968918,432.288513 
	C117.351822,439.198547 108.843811,446.266876 99.769875,451.818268 
	C105.503494,437.692993 111.237114,423.567688 117.080414,409.064514 
z"/>
<path fill="#FEFEFE" opacity="1.000000" stroke="none" 
	d="
M266.261902,206.828659 
	C225.302292,184.242325 190.097183,155.406067 162.478317,117.924492 
	C155.557526,108.532265 150.267441,97.938431 144.227905,87.896843 
	C144.746490,87.460205 145.265076,87.023575 145.783661,86.586937 
	C147.048813,87.569824 148.450424,88.419914 149.557114,89.557030 
	C157.072525,97.279099 165.340073,103.836411 175.733902,107.341957 
	C180.183655,108.842735 183.519943,108.402977 187.298340,104.791786 
	C251.695374,43.244198 351.299713,43.490665 415.116791,105.326843 
	C418.493500,108.598740 421.597290,108.761299 425.427307,107.550652 
	C436.569855,104.028564 445.322113,96.992805 453.133972,88.593117 
	C454.236542,87.407547 455.326508,86.210205 457.233734,85.446503 
	C456.640320,87.086945 456.130402,88.763382 455.440857,90.362358 
	C447.077942,109.753876 434.439514,126.233047 420.091339,141.448044 
	C394.646149,168.430542 365.847900,191.086700 332.859711,208.274155 
	C329.876587,209.828415 327.798828,209.837692 324.813690,207.951080 
	C309.864380,198.503174 294.294159,197.837799 279.032806,206.850067 
	C274.336853,209.623184 270.789490,210.025909 266.261902,206.828659 
z"/>
<path fill="#FDFDFD" opacity="1.000000" stroke="none" 
	d="
M339.215088,287.002563 
	C339.183411,305.663177 337.184692,302.915558 353.402863,312.180206 
	C356.999146,314.234619 360.562286,316.347107 364.240387,318.490997 
	C363.865845,319.062866 363.699890,319.618073 363.334473,319.830994 
	C342.951202,331.706360 328.998138,349.297791 320.036713,370.656189 
	C313.356537,386.577484 308.190521,403.134064 302.351166,419.408081 
	C302.026306,420.313507 301.710297,421.222107 300.953064,423.367859 
	C300.038116,420.755280 299.508148,419.188934 298.942719,417.635498 
	C293.029877,401.390594 287.799133,384.854248 281.022766,368.977661 
	C272.269073,348.468353 258.552795,331.708496 239.075363,320.152740 
	C238.553238,319.842987 238.140518,319.348877 237.325500,318.631592 
	C243.836319,314.882111 249.897736,311.145264 256.189178,307.847290 
	C261.096710,305.274750 263.035187,301.563629 262.785614,296.115845 
	C262.196075,283.247192 262.834198,270.477509 266.934204,258.098297 
	C270.157806,248.365341 275.624054,240.190170 283.603271,233.706573 
	C294.917664,224.512955 306.866974,224.514542 318.166809,233.627258 
	C332.499207,245.185577 337.372070,261.076599 338.886078,278.520752 
	C339.116241,281.172577 339.108459,283.845032 339.215088,287.002563 
z"/>
<path fill="#F9F9FA" opacity="1.000000" stroke="none" 
	d="
M398.524536,217.193649 
	C395.324219,228.702332 386.955170,233.937973 376.645477,236.596558 
	C365.036652,239.590118 353.976044,237.640625 343.746246,232.199188 
	C361.021576,221.317932 378.198883,210.498413 395.724304,199.459610 
	C398.551056,204.467453 399.651672,210.411194 398.524536,217.193649 
z"/>
<path fill="#F9F9F9" opacity="1.000000" stroke="none" 
	d="
M253.402588,234.428589 
	C241.000320,239.099869 228.976227,239.449463 217.262222,233.686554 
	C203.168289,226.752777 198.889832,212.540482 206.245285,199.483734 
	C223.446365,210.343018 240.673019,221.218445 258.032349,232.177643 
	C256.928894,232.714615 255.340118,233.487778 253.402588,234.428589 
z"/>
</svg>